<?xml version="1.0" encoding="utf-8"?>
<!-- Generator: Adobe Illustrator 19.2.1, SVG Export Plug-In . SVG Version: 6.00 Build 0)  -->
<svg version="1.1" id="Layer_1" xmlns="http://www.w3.org/2000/svg" xmlns:xlink="http://www.w3.org/1999/xlink" x="0px" y="0px"
	 viewBox="0 0 120 72" enable-background="new 0 0 120 72" xml:space="preserve">
<g>
	<polygon fill="#FFFFFF" points="120,0 0,0 0,72 120,72 120,0 	"/>
</g>
<g>
	<path fill="#F2F2F2" d="M117.8,2.3v67.5H2.3V2.3H117.8 M120,0H0v72h120V0L120,0z"/>
</g>
<linearGradient id="VISA_2_" gradientUnits="userSpaceOnUse" x1="18.0856" y1="52.4127" x2="98.7965" y2="21.4562">
	<stop  offset="0" style="stop-color:#11185B"/>
	<stop  offset="1" style="stop-color:#00299B"/>
</linearGradient>
<path id="VISA_1_" fill="url(#VISA_2_)" d="M45,22.3L32.3,52.8h-8.3l-6.3-24.3c-0.4-1.5-0.7-2-1.9-2.7c-1.9-1-5-2-7.8-2.6l0.2-0.9
	h13.4c1.7,0,3.2,1.1,3.6,3.1L28.6,43l8.2-20.7H45z M77.7,42.8c0-8-11.1-8.5-11-12.1c0-1.1,1.1-2.3,3.3-2.6c1.1-0.1,4.2-0.3,7.8,1.4
	l1.4-6.5c-1.9-0.7-4.3-1.4-7.4-1.4c-7.8,0-13.3,4.1-13.3,10.1c-0.1,4.4,3.9,6.8,6.9,8.3c3.1,1.5,4.1,2.5,4.1,3.8c0,2-2.5,2.9-4.7,3
	c-4,0.1-6.3-1.1-8.1-1.9l-1.4,6.7c1.8,0.8,5.2,1.6,8.8,1.6C72.2,53.3,77.7,49.2,77.7,42.8 M98.2,52.8h7.3l-6.4-30.5h-6.7
	c-1.5,0-2.8,0.9-3.4,2.2L77.3,52.8h8.3l1.6-4.6h10.1L98.2,52.8z M89.5,42l4.1-11.4L96,42H89.5z M56.3,22.3l-6.5,30.5h-7.9l6.5-30.5
	H56.3z"/>
</svg>
